<?xml version="1.0" encoding="UTF-8" standalone="no"?>
<svg
   xmlns:dc="http://purl.org/dc/elements/1.1/"
   xmlns:cc="http://creativecommons.org/ns#"
   xmlns:rdf="http://www.w3.org/1999/02/22-rdf-syntax-ns#"
   xmlns:svg="http://www.w3.org/2000/svg"
   xmlns="http://www.w3.org/2000/svg"
   xmlns:sodipodi="http://sodipodi.sourceforge.net/DTD/sodipodi-0.dtd"
   xmlns:inkscape="http://www.inkscape.org/namespaces/inkscape"
   id="Layer_1"
   data-name="Layer 1"
   viewBox="0 0 65 65"
   version="1.1"
   sodipodi:docname="Report - findings icons-01.svg"
   width="65"
   height="65"
   inkscape:export-filename="/home/alec/Projects/Brookings/black-devaluation/icons/devaluation-icon1.png"
   inkscape:export-xdpi="96"
   inkscape:export-ydpi="96"
   inkscape:version="0.92.3 (2405546, 2018-03-11)">
  <metadata
     id="metadata23">
    <rdf:RDF>
      <cc:Work
         rdf:about="">
        <dc:format>image/svg+xml</dc:format>
        <dc:type
           rdf:resource="http://purl.org/dc/dcmitype/StillImage" />
        <dc:title>Report - findings icons</dc:title>
      </cc:Work>
    </rdf:RDF>
  </metadata>
  <sodipodi:namedview
     pagecolor="#ffffff"
     bordercolor="#666666"
     borderopacity="1"
     objecttolerance="10"
     gridtolerance="10"
     guidetolerance="10"
     inkscape:pageopacity="0"
     inkscape:pageshadow="2"
     inkscape:window-width="1926"
     inkscape:window-height="946"
     id="namedview21"
     showgrid="false"
     inkscape:zoom="1.18"
     inkscape:cx="-57.627119"
     inkscape:cy="100"
     inkscape:window-x="53"
     inkscape:window-y="27"
     inkscape:window-maximized="0"
     inkscape:current-layer="Layer_1" />
  <defs
     id="defs4">
    <style
       id="style2">.cls-1{fill:#912e54;}.cls-2{fill:none;}</style>
  </defs>
  <title
     id="title6">Report - findings icons</title>
  <g
     id="g836"
     transform="matrix(0.37863046,0,0,0.37863046,-5.3668323,-5.360898)">
    <path
       style="fill:#a92760;fill-opacity:1;stroke:none;stroke-opacity:1"
       id="path8"
       d="m 165.72,20.87 a 13.41,13.41 0 1 0 13.41,13.41 13.43,13.43 0 0 0 -13.41,-13.41 m 0,33.53 A 20.12,20.12 0 1 1 185.84,34.28 20.14,20.14 0 0 1 165.72,54.4"
       class="cls-1"
       inkscape:connector-curvature="0" />
    <path
       style="fill:#a92760;fill-opacity:1;stroke:none;stroke-opacity:1"
       id="path10"
       d="m 21.28,44.47 h 79.4 A 16.14,16.14 0 0 0 79,30.5 3.35,3.35 0 0 1 75.13,29.32 20.44,20.44 0 0 0 40.27,32.2 3.36,3.36 0 0 1 36.83,34 a 14.24,14.24 0 0 0 -2,-0.15 14,14 0 0 0 -13.55,10.62 m 82.67,6.71 H 17.51 a 3.35,3.35 0 0 1 -3.35,-3.35 20.67,20.67 0 0 1 21.27,-20.65 27.15,27.15 0 0 1 43.66,-3.7 22.84,22.84 0 0 1 28.34,22.16 23.91,23.91 0 0 1 -0.14,2.55 3.35,3.35 0 0 1 -3.33,3"
       class="cls-1"
       inkscape:connector-curvature="0" />
    <path
       style="fill:#912e54;stroke:none;stroke-opacity:1"
       id="path12"
       d="m 164.21,171.29 a 3.37,3.37 0 0 1 -0.65,-0.07 3.13,3.13 0 0 1 -0.62,-0.19 3.4,3.4 0 0 1 -1.51,-1.24 3.38,3.38 0 0 1 -0.31,-0.57 3.42,3.42 0 0 1 -0.19,-1.94 3.22,3.22 0 0 1 0.19,-0.62 3.32,3.32 0 0 1 0.31,-0.58 3.28,3.28 0 0 1 0.93,-0.93 3.59,3.59 0 0 1 0.58,-0.31 3.15,3.15 0 0 1 0.62,-0.19 3.36,3.36 0 0 1 1.31,0 3.18,3.18 0 0 1 0.63,0.19 3.56,3.56 0 0 1 0.58,0.31 3.33,3.33 0 0 1 1.24,1.51 3.48,3.48 0 0 1 0.19,0.62 3.34,3.34 0 0 1 0.07,0.65 3.37,3.37 0 0 1 -0.07,0.66 3.61,3.61 0 0 1 -0.19,0.63 3.4,3.4 0 0 1 -0.31,0.57 3.19,3.19 0 0 1 -0.42,0.51 3.38,3.38 0 0 1 -0.51,0.42 3.32,3.32 0 0 1 -0.58,0.31 3.16,3.16 0 0 1 -0.63,0.19 3.35,3.35 0 0 1 -0.66,0.07"
       class="cls-1"
       inkscape:connector-curvature="0" />
    <path
       style="fill:#a92760;fill-opacity:1;stroke:none;stroke-opacity:1"
       id="path14"
       d="M 179.13,179.13 H 20.87 v -7.84 h 129.76 a 3.355,3.355 0 0 0 0,-6.71 h -7.76 v -7.84 h 36.26 z m -122,-14.55 H 20.87 v -7.84 h 36.27 z m -26.7,-56.82 36.16,-26.57 4,2.92 -18.43,13.52 v 0 a 3.34,3.34 0 0 0 -1.28,2.13 0.9,0.9 0 0 0 0,0.1 v 0.1 c 0,0.11 0,0.23 0,0.35 v 18.39 a 3.35,3.35 0 0 0 1.84,3 h 0.05 a 3.36,3.36 0 0 0 3.45,-0.32 l 1,-0.74 V 150 H 30.43 Z m -6.34,-13.7 42.5,-31.22 16.47,12.1 -6.83,5 -7.65,-5.62 a 3.36,3.36 0 0 0 -4,0 L 24.09,104.1 Z M 100,70.81 142.5,102 v 10 l -1,-0.74 -39.5,-28.95 -0.28,-0.19 a 3.35,3.35 0 0 0 -3.4,0 l -0.28,0.19 -39.51,29 -1,0.74 V 102 Z m 33.4,-8 42.5,31.22 v 10 l -40.51,-29.7 a 3.36,3.36 0 0 0 -3.68,-0.19 l -0.28,0.19 -7.66,5.67 -6.83,-5 z m -22.45,75 H 89 a 3.35,3.35 0 0 0 -3.35,3.35 v 23.35 H 63.84 V 115.73 L 100,89.17 l 36.16,26.56 v 48.84 h -21.85 v -23.34 a 3.35,3.35 0 0 0 -3.35,-3.35 m -3.35,26.71 H 92.4 v -20 h 15.2 z m 62,-56.82 V 150 h -26.7 v -29.34 l 1,0.74 h 0.05 v 0 0 0 0 0 0 0 0 0 0 0 l 0.11,0.06 v 0 h 0.05 v 0 0 0 h 0.05 v 0 a 3.35,3.35 0 0 0 2.45,0.09 v 0 l 0.17,-0.06 h 0.19 0.05 a 3.35,3.35 0 0 0 1.84,-3 v -18.16 a 3.36,3.36 0 0 0 -1.37,-2.7 l -18.4,-13.52 4,-2.92 z M 182.48,150 h -6.21 v -37.32 l 1,0.74 a 3.35,3.35 0 0 0 5.34,-2.7 V 92.36 a 3.35,3.35 0 0 0 -1.37,-2.7 L 135.39,56 a 3.35,3.35 0 0 0 -4,0 L 111.25,70.8 102,63.95 a 3.35,3.35 0 0 0 -4,0 L 88.71,70.77 68.58,56 a 3.35,3.35 0 0 0 -4,0 L 18.75,89.66 a 3.35,3.35 0 0 0 -1.36,2.7 v 18.36 a 3.35,3.35 0 0 0 5.34,2.7 l 1,-0.74 V 150 h -6.22 a 3.35,3.35 0 0 0 -3.35,3.35 v 29.1 a 3.35,3.35 0 0 0 3.35,3.35 h 165 a 3.35,3.35 0 0 0 3.35,-3.35 v -29.1 A 3.35,3.35 0 0 0 182.51,150"
       class="cls-1"
       inkscape:connector-curvature="0" />
    <path
       style="fill:#a92760;fill-opacity:1;stroke:none;stroke-opacity:1"
       id="path16"
       d="m 100,108.52 a 7.8,7.8 0 1 0 7.8,7.8 7.81,7.81 0 0 0 -7.8,-7.8 m 0,22.31 A 14.51,14.51 0 1 1 114.51,116.32 14.53,14.53 0 0 1 100,130.84"
       class="cls-1"
       inkscape:connector-curvature="0" />
    <rect
       style="fill:none;stroke:none;stroke-opacity:1"
       id="rect18"
       height="171.67"
       width="171.67"
       y="14.16"
       x="14.16"
       class="cls-2" />
  </g>
</svg>
