<?xml version="1.0" encoding="UTF-8" standalone="no"?>
<svg
   xmlns:dc="http://purl.org/dc/elements/1.1/"
   xmlns:cc="http://creativecommons.org/ns#"
   xmlns:rdf="http://www.w3.org/1999/02/22-rdf-syntax-ns#"
   xmlns:svg="http://www.w3.org/2000/svg"
   xmlns="http://www.w3.org/2000/svg"
   xmlns:sodipodi="http://sodipodi.sourceforge.net/DTD/sodipodi-0.dtd"
   xmlns:inkscape="http://www.inkscape.org/namespaces/inkscape"
   id="Layer_1"
   data-name="Layer 1"
   viewBox="0 0 70 65"
   version="1.1"
   sodipodi:docname="Report - findings icons-02.svg"
   width="70"
   height="65"
   inkscape:version="0.92.3 (2405546, 2018-03-11)"
   inkscape:export-filename="/home/alec/Projects/Brookings/black-devaluation/icons/devaluation-icon2.png"
   inkscape:export-xdpi="96"
   inkscape:export-ydpi="96">
  <metadata
     id="metadata23">
    <rdf:RDF>
      <cc:Work
         rdf:about="">
        <dc:format>image/svg+xml</dc:format>
        <dc:type
           rdf:resource="http://purl.org/dc/dcmitype/StillImage" />
        <dc:title>Report - findings icons</dc:title>
      </cc:Work>
    </rdf:RDF>
  </metadata>
  <sodipodi:namedview
     pagecolor="#ffffff"
     bordercolor="#666666"
     borderopacity="1"
     objecttolerance="10"
     gridtolerance="10"
     guidetolerance="10"
     inkscape:pageopacity="0"
     inkscape:pageshadow="2"
     inkscape:window-width="1969"
     inkscape:window-height="955"
     id="namedview21"
     showgrid="false"
     inkscape:zoom="1.18"
     inkscape:cx="99.837319"
     inkscape:cy="92.500001"
     inkscape:window-x="53"
     inkscape:window-y="27"
     inkscape:window-maximized="0"
     inkscape:current-layer="Layer_1"
     fit-margin-top="0"
     fit-margin-left="0"
     fit-margin-right="0"
     fit-margin-bottom="0" />
  <defs
     id="defs4">
    <style
       id="style2">.cls-1{fill:#e4e5e7;}.cls-2{fill:#903055;}.cls-3{fill:none;}</style>
  </defs>
  <title
     id="title6">Report - findings icons</title>
  <g
     id="g835"
     transform="matrix(0.35406907,0,0,0.35406907,-0.44612702,-2.9069071)">
    <path
       style="fill:#a92760;fill-opacity:1"
       id="path10"
       d="m 92.89,153.06 a 68.16,68.16 0 0 1 -46.42,-17.71 5.06,5.06 0 0 1 0,-7.57 6.18,6.18 0 0 1 8.22,0 c 21.06,19.4 55.33,19.4 76.4,0 21.07,-19.4 21.06,-51 0,-70.37 -21.06,-19.37 -55.34,-19.4 -76.4,0 a 6.17,6.17 0 0 1 -8.22,0 5.06,5.06 0 0 1 0,-7.57 c 25.59,-23.57 67.24,-23.57 92.83,0 25.59,23.57 25.59,61.93 0,85.5 a 68.14,68.14 0 0 1 -46.42,17.71"
       class="cls-2"
       inkscape:connector-curvature="0" />
    <path
       style="fill:#a92760;fill-opacity:1"
       id="path12"
       d="M 92.89,177 C 42.37,177 1.26,139.13 1.26,92.6 1.26,70.06 10.79,48.87 28.1,32.93 45.41,16.99 68.42,8.21 92.89,8.21 c 50.52,0 91.62,37.86 91.62,84.39 a 5.83,5.83 0 0 1 -11.62,0 c 0,-40.63 -35.89,-73.68 -80,-73.68 -21.37,0 -41.46,7.67 -56.57,21.58 -15.11,13.91 -23.44,32.42 -23.44,52.1 0,40.63 35.89,73.69 80,73.69 22.36,0 43.09,-8.28 58.38,-23.31 a 6.17,6.17 0 0 1 8.22,-0.25 5.06,5.06 0 0 1 0.27,7.57 c -17.26,17 -41.64,26.69 -66.87,26.69"
       class="cls-2"
       inkscape:connector-curvature="0" />
    <path
       style="fill:#a92760;fill-opacity:1"
       id="path14"
       d="M 97.68,112.44 V 97.36 c 8,1.29 8,5.87 8,7.54 0,1.67 0,6.25 -8,7.54 m -9.59,-24.6 c -8,-1.29 -8,-5.87 -8,-7.54 0,-1.67 0,-6.25 8,-7.54 z m 9.59,0.61 V 72.76 c 6.8,1.1 7.83,4.57 8,6.61 a 1,1 0 0 0 1.08,0.93 h 7.43 a 1,1 0 0 0 1.08,-1.06 C 114.79,70.63 108.38,65.09 97.7,63.85 v -5.28 a 1,1 0 0 0 -1.08,-1 h -7.44 a 1,1 0 0 0 -1.08,1 v 5.28 C 77,65.14 70.5,71.08 70.5,80.3 c 0,9.22 6.5,15.15 17.59,16.44 v 15.7 c -6.8,-1.1 -7.83,-4.57 -8,-6.61 A 1,1 0 0 0 79,104.9 h -7.39 a 1,1 0 0 0 -1.08,1.1 c 0.48,8.61 6.89,14.15 17.57,15.39 v 5.28 a 1,1 0 0 0 1.08,1 h 7.42 a 1,1 0 0 0 1.08,-1 v -5.28 c 11.11,-1.29 17.6,-7.24 17.6,-16.45 0,-9.21 -6.48,-15.16 -17.6,-16.45"
       class="cls-2"
       inkscape:connector-curvature="0" />
    <path
       style="fill:#a92760;fill-opacity:1"
       id="path16"
       d="m 197,169.56 a 6.17,6.17 0 0 0 -8.22,0 l -4.3,4 v -51.25 a 5.83,5.83 0 0 0 -11.62,0 v 51.21 l -4.3,-4 a 6.16,6.16 0 0 0 -8.22,0 5.05,5.05 0 0 0 0,7.57 l 14.22,13.1 a 6.17,6.17 0 0 0 8.22,0 L 197,177.12 a 5.05,5.05 0 0 0 0,-7.57"
       class="cls-2"
       inkscape:connector-curvature="0" />
    <rect
       id="rect18"
       height="183.58"
       width="197.47"
       y="8.21"
       x="1.26"
       class="cls-3"
       style="fill:none" />
  </g>
</svg>
