<?xml version="1.0" encoding="UTF-8" standalone="no"?>
<svg
   xmlns:dc="http://purl.org/dc/elements/1.1/"
   xmlns:cc="http://creativecommons.org/ns#"
   xmlns:rdf="http://www.w3.org/1999/02/22-rdf-syntax-ns#"
   xmlns:svg="http://www.w3.org/2000/svg"
   xmlns="http://www.w3.org/2000/svg"
   xmlns:sodipodi="http://sodipodi.sourceforge.net/DTD/sodipodi-0.dtd"
   xmlns:inkscape="http://www.inkscape.org/namespaces/inkscape"
   id="Layer_1"
   data-name="Layer 1"
   viewBox="0 0 60 65"
   version="1.1"
   sodipodi:docname="Report - findings icons-04-wide.svg"
   width="60"
   height="65"
   inkscape:version="0.92.3 (2405546, 2018-03-11)"
   inkscape:export-filename="/home/alec/Projects/Brookings/black-devaluation/icons/devaluation-icon4.png"
   inkscape:export-xdpi="96"
   inkscape:export-ydpi="96">
  <metadata
     id="metadata17">
    <rdf:RDF>
      <cc:Work
         rdf:about="">
        <dc:format>image/svg+xml</dc:format>
        <dc:type
           rdf:resource="http://purl.org/dc/dcmitype/StillImage" />
        <dc:title>Report - findings icons</dc:title>
      </cc:Work>
    </rdf:RDF>
  </metadata>
  <sodipodi:namedview
     pagecolor="#ffffff"
     bordercolor="#666666"
     borderopacity="1"
     objecttolerance="10"
     gridtolerance="10"
     guidetolerance="10"
     inkscape:pageopacity="0"
     inkscape:pageshadow="2"
     inkscape:window-width="1863"
     inkscape:window-height="971"
     id="namedview15"
     showgrid="false"
     inkscape:zoom="1.18"
     inkscape:cx="-57.627119"
     inkscape:cy="100"
     inkscape:window-x="53"
     inkscape:window-y="27"
     inkscape:window-maximized="0"
     inkscape:current-layer="Layer_1"
     fit-margin-top="0"
     fit-margin-left="0"
     fit-margin-right="0"
     fit-margin-bottom="0" />
  <defs
     id="defs4">
    <style
       id="style2">.cls-1{fill:#912e54;}.cls-2{fill:none;}</style>
  </defs>
  <title
     id="title6">Report - findings icons</title>
  <g
     id="g827"
     transform="matrix(0.444247,0,0,0.3900624,-14.4247,-6.5062408)">
    <path
       style="fill:#a92760;fill-opacity:1"
       id="path8"
       d="m 162.65,178.43 h -4.88 V 24 a 2.44,2.44 0 1 1 4.88,0 z M 152.88,36.21 h -19.52 v -9.76 h 19.53 z M 135.8,98 a 2.44,2.44 0 1 1 0,4.88 h -2.44 V 98 Z m -7.32,-61.83 h -57 v -9.72 h 57 z m 0,66.71 h -11.74 a 9,9 0 0 0 -8.61,-6.51 H 91.87 a 9,9 0 0 0 -8.61,6.51 H 71.52 V 41.09 h 57 z m 0,35.8 h -5 a 21.91,21.91 0 0 0 -6.37,-13.23 v -17.64 h 11.39 z m 0,9.76 H 112.2 v -4.88 h 16.27 z M 87.8,124.08 v -18.71 a 4.07,4.07 0 0 1 4.07,-4.07 h 16.27 a 4.07,4.07 0 0 1 4.07,4.07 v 18.71 z m 22,9.76 a 2.44,2.44 0 0 0 -2.44,2.44 v 2.44 H 92.68 v -2.44 a 2.44,2.44 0 1 0 -4.88,0 v 2.44 H 81.46 A 17,17 0 0 1 86.35,129 h 27.29 a 17,17 0 0 1 4.89,9.76 h -6.33 v -2.44 a 2.44,2.44 0 0 0 -2.44,-2.44 m -2.44,14.65 H 92.68 v -4.88 h 14.64 z m -19.52,0 H 71.52 v -4.88 H 87.8 Z M 71.52,107.81 h 11.39 v 17.69 a 21.91,21.91 0 0 0 -6.37,13.23 h -5 z M 66.64,36.21 H 47.11 v -9.76 h 19.53 z m 0,66.71 H 64.2 a 2.44,2.44 0 0 1 0,-4.88 h 2.44 z M 42.23,178.43 H 37.35 V 24 a 2.44,2.44 0 1 1 4.88,0 z m 118,-161.75 a 7.33,7.33 0 0 0 -6.9,4.88 h -19.97 v -2.43 a 2.44,2.44 0 0 0 -4.88,0 v 2.44 h -57 v -2.44 a 2.44,2.44 0 0 0 -4.88,0 v 2.44 H 46.69 A 7.32,7.32 0 0 0 32.47,24 v 156.87 a 2.44,2.44 0 0 0 2.44,2.44 h 9.76 a 2.44,2.44 0 0 0 2.44,-2.44 V 41.09 H 66.64 V 93.16 H 64.2 a 7.325,7.325 0 0 0 0,14.65 h 2.44 v 43.12 a 2.44,2.44 0 0 0 2.44,2.44 H 87.8 v 12.93 l -4.3,8.6 a 2.4440233,2.4440233 0 0 0 4.37,2.19 L 92.42,168 a 2.42,2.42 0 0 0 0.26,-1.09 v -13.5 h 14.64 v 13.5 a 2.42,2.42 0 0 0 0.26,1.09 l 4.56,9.11 a 2.4417873,2.4417873 0 1 0 4.37,-2.18 l -4.3,-8.6 v -12.96 h 18.72 a 2.44,2.44 0 0 0 2.44,-2.44 v -43.12 h 2.44 a 7.32,7.32 0 1 0 0,-14.64 h -2.44 V 41.09 h 19.52 v 139.78 a 2.44,2.44 0 0 0 2.44,2.44 h 9.76 a 2.44,2.44 0 0 0 2.44,-2.44 V 24 a 7.33,7.33 0 0 0 -7.32,-7.32"
       class="cls-1"
       inkscape:connector-curvature="0" />
    <path
       style="fill:#a92760;fill-opacity:1"
       id="path10"
       d="M 91,66.27 A 31.39,31.39 0 0 0 112,76.78 12.2,12.2 0 1 1 91,66.27 m 9,-4 a 12.23,12.23 0 0 1 11.93,9.62 26.56,26.56 0 0 1 -17,-8.51 12.14,12.14 0 0 1 5.07,-1.13 m 0,29.29 A 17.09,17.09 0 1 0 82.92,74.45 17.1,17.1 0 0 0 100,91.54"
       class="cls-1"
       inkscape:connector-curvature="0" />
    <rect
       id="rect12"
       height="166.63"
       width="135.06"
       y="16.690001"
       x="32.470001"
       class="cls-2"
       style="fill:none" />
  </g>
</svg>
