<?xml version="1.0" encoding="UTF-8" standalone="no"?>
<svg
   xmlns:dc="http://purl.org/dc/elements/1.1/"
   xmlns:cc="http://creativecommons.org/ns#"
   xmlns:rdf="http://www.w3.org/1999/02/22-rdf-syntax-ns#"
   xmlns:svg="http://www.w3.org/2000/svg"
   xmlns="http://www.w3.org/2000/svg"
   xmlns:sodipodi="http://sodipodi.sourceforge.net/DTD/sodipodi-0.dtd"
   xmlns:inkscape="http://www.inkscape.org/namespaces/inkscape"
   id="Layer_1"
   data-name="Layer 1"
   viewBox="0 0 76 65"
   version="1.1"
   sodipodi:docname="Report - findings icons-03.svg"
   width="76"
   height="65"
   inkscape:export-filename="/home/alec/Projects/Brookings/black-devaluation/icons/devaluation-icon3.png"
   inkscape:export-xdpi="96"
   inkscape:export-ydpi="96"
   inkscape:version="0.92.3 (2405546, 2018-03-11)">
  <metadata
     id="metadata60">
    <rdf:RDF>
      <cc:Work
         rdf:about="">
        <dc:format>image/svg+xml</dc:format>
        <dc:type
           rdf:resource="http://purl.org/dc/dcmitype/StillImage" />
        <dc:title>Report - findings icons</dc:title>
      </cc:Work>
    </rdf:RDF>
  </metadata>
  <sodipodi:namedview
     pagecolor="#ffffff"
     bordercolor="#666666"
     borderopacity="1"
     objecttolerance="10"
     gridtolerance="10"
     guidetolerance="10"
     inkscape:pageopacity="0"
     inkscape:pageshadow="2"
     inkscape:window-width="1757"
     inkscape:window-height="950"
     id="namedview58"
     showgrid="false"
     inkscape:zoom="1.18"
     inkscape:cx="-59.000911"
     inkscape:cy="93.5"
     inkscape:window-x="53"
     inkscape:window-y="27"
     inkscape:window-maximized="0"
     inkscape:current-layer="Layer_1"
     fit-margin-top="0"
     fit-margin-left="0"
     fit-margin-right="0"
     fit-margin-bottom="0" />
  <defs
     id="defs7">
    <style
       id="style2">.cls-1{fill:none;}.cls-2{clip-path:url(#clip-path);}.cls-3{fill:#912e54;}</style>
    <clipPath
       id="clip-path">
      <rect
         class="cls-1"
         x="1.92"
         y="15.71"
         width="196.16"
         height="168.58"
         id="rect4"
         style="fill:none" />
    </clipPath>
  </defs>
  <title
     id="title9">Report - findings icons</title>
  <g
     id="g911"
     transform="matrix(0.38557361,0,0,0.38557361,-0.74795623,-6.057361)">
    <path
       class="cls-3"
       d="M 195,172 H 5 a 3.07,3.07 0 0 1 -2.55,-4.76 l 30.65,-46 a 3.07,3.07 0 1 1 5.1,3.4 L 10.71,165.9 h 178.58 l -27.48,-41.21 a 3.07,3.07 0 1 1 5.1,-3.4 l 30.65,46 A 3.06,3.06 0 0 1 195,172"
       id="path11"
       inkscape:connector-curvature="0"
       style="fill:#a92760;fill-opacity:1" />
    <path
       class="cls-3"
       d="M 8,178.16 H 191.9 V 172 H 8 Z m 187,6.13 H 5 A 3.06,3.06 0 0 1 1.94,181.23 V 169 A 3.07,3.07 0 0 1 5,165.9 h 190 a 3.06,3.06 0 0 1 3.06,3.07 v 12.26 a 3.06,3.06 0 0 1 -3.06,3.06"
       id="path13"
       inkscape:connector-curvature="0"
       style="fill:#a92760;fill-opacity:1" />
    <path
       class="cls-3"
       d="m 32.11,172 a 3.07,3.07 0 0 1 -2.76,-4.39 l 16.07,-33.72 a 3.0639231,3.0639231 0 1 1 5.53,2.64 L 34.87,170.28 A 3.07,3.07 0 0 1 32.11,172"
       id="path15"
       inkscape:connector-curvature="0"
       style="fill:#a92760;fill-opacity:1" />
    <path
       class="cls-3"
       d="m 63.63,156.7 a 3,3 0 0 1 -0.85,-0.12 3.06,3.06 0 0 1 -2.1,-3.79 l 4.39,-15.33 a 3.0830585,3.0830585 0 0 1 5.93,1.69 l -4.4,15.33 a 3.06,3.06 0 0 1 -2.94,2.22"
       id="path17"
       inkscape:connector-curvature="0"
       style="fill:#a92760;fill-opacity:1" />
    <path
       class="cls-3"
       d="m 167.89,172 a 3.07,3.07 0 0 1 -2.77,-1.75 L 159.28,158 a 3.07,3.07 0 0 1 5.53,-2.64 l 5.85,12.27 a 3.06,3.06 0 0 1 -1.45,4.09 3.11,3.11 0 0 1 -1.32,0.3"
       id="path19"
       inkscape:connector-curvature="0"
       style="fill:#a92760;fill-opacity:1" />
    <path
       class="cls-3"
       d="m 156.2,147.49 a 3.06,3.06 0 0 1 -2.77,-1.75 L 143.21,124.3 a 3.0639231,3.0639231 0 1 1 5.53,-2.64 L 159,143.11 a 3.06,3.06 0 0 1 -1.45,4.09 3.11,3.11 0 0 1 -1.32,0.3"
       id="path21"
       inkscape:connector-curvature="0"
       style="fill:#a92760;fill-opacity:1" />
    <path
       class="cls-3"
       d="m 136.37,156.7 a 3.06,3.06 0 0 1 -2.94,-2.22 L 129,139.15 a 3.0638293,3.0638293 0 0 1 5.89,-1.69 l 4.39,15.33 a 3.06,3.06 0 0 1 -2.1,3.79 3,3 0 0 1 -0.85,0.12"
       id="path23"
       inkscape:connector-curvature="0"
       style="fill:#a92760;fill-opacity:1" />
    <path
       class="cls-3"
       d="M 48.18,138.31 H 27.46 a 3.065,3.065 0 1 1 0,-6.13 h 20.72 a 3.065,3.065 0 0 1 0,6.13"
       id="path25"
       inkscape:connector-curvature="0"
       style="fill:#a92760;fill-opacity:1" />
    <path
       class="cls-3"
       d="M 186.84,159.77 H 162 a 3.065,3.065 0 0 1 0,-6.13 h 24.79 a 3.065,3.065 0 0 1 0,6.13"
       id="path27"
       inkscape:connector-curvature="0"
       style="fill:#a92760;fill-opacity:1" />
    <path
       class="cls-3"
       d="M 178.67,147.51 H 156.2 a 3.065,3.065 0 1 1 0,-6.13 h 22.47 a 3.065,3.065 0 0 1 0,6.13"
       id="path29"
       inkscape:connector-curvature="0"
       style="fill:#a92760;fill-opacity:1" />
    <path
       class="cls-3"
       d="M 93.87,141.38 H 68 a 3.065,3.065 0 1 1 0,-6.13 h 25.87 a 3.065,3.065 0 0 1 0,6.13"
       id="path31"
       inkscape:connector-curvature="0"
       style="fill:#a92760;fill-opacity:1" />
    <path
       class="cls-3"
       d="m 132,141.38 h -25.58 a 3.065,3.065 0 0 1 0,-6.13 H 132 a 3.065,3.065 0 0 1 0,6.13"
       id="path33"
       inkscape:connector-curvature="0"
       style="fill:#a92760;fill-opacity:1" />
    <path
       class="cls-3"
       d="M 136.37,156.7 H 63.63 a 3.065,3.065 0 0 1 0,-6.13 h 72.75 a 3.065,3.065 0 0 1 0,6.13"
       id="path35"
       inkscape:connector-curvature="0"
       style="fill:#a92760;fill-opacity:1" />
    <path
       class="cls-3"
       d="M 100,21.84 A 43,43 0 0 0 57.09,64.75 c 0,32.9 34.16,67.26 42.91,75.52 8.75,-8.26 42.91,-42.63 42.91,-75.52 A 43,43 0 0 0 100,21.84 m 0,125.67 a 3.06,3.06 0 0 1 -2,-0.76 c -1.92,-1.68 -47,-41.66 -47,-82 a 49.04,49.04 0 1 1 98.08,0 c 0,40.33 -45.1,80.31 -47,82 a 3.06,3.06 0 0 1 -2,0.76"
       id="path37"
       inkscape:connector-curvature="0"
       style="fill:#a92760;fill-opacity:1" />
    <path
       class="cls-3"
       d="M 79.85,126.05 H 35.64 a 3.065,3.065 0 1 1 0,-6.13 h 44.21 a 3.065,3.065 0 1 1 0,6.13"
       id="path39"
       inkscape:connector-curvature="0"
       style="fill:#a92760;fill-opacity:1" />
    <path
       class="cls-3"
       d="m 164.37,126.05 h -44.23 a 3.065,3.065 0 1 1 0,-6.13 h 44.22 a 3.065,3.065 0 1 1 0,6.13"
       id="path41"
       inkscape:connector-curvature="0"
       style="fill:#a92760;fill-opacity:1" />
    <path
       class="cls-3"
       d="M 118.39,89.27 H 81.61 a 3.065,3.065 0 1 1 0,-6.13 h 36.78 a 3.065,3.065 0 1 1 0,6.13"
       id="path43"
       inkscape:connector-curvature="0"
       style="fill:#a92760;fill-opacity:1" />
    <path
       class="cls-3"
       d="M 84.67,89.27 A 3.06,3.06 0 0 1 81.61,86.21 V 49.43 a 3.065,3.065 0 0 1 6.13,0 v 36.78 a 3.06,3.06 0 0 1 -3.06,3.06"
       id="path45"
       inkscape:connector-curvature="0"
       style="fill:#a92760;fill-opacity:1" />
    <path
       class="cls-3"
       d="m 115.32,89.27 a 3.06,3.06 0 0 1 -3.06,-3.06 V 60.37 a 3.065,3.065 0 0 1 6.13,0 v 25.84 a 3.06,3.06 0 0 1 -3.06,3.06"
       id="path47"
       inkscape:connector-curvature="0"
       style="fill:#a92760;fill-opacity:1" />
    <path
       class="cls-3"
       d="M 78.55,67.82 A 3.07,3.07 0 0 1 76.77,62.26 L 98.22,46.93 a 3.0718439,3.0718439 0 0 1 3.57,5 L 80.33,67.25 a 3.07,3.07 0 0 1 -1.78,0.57"
       id="path49"
       inkscape:connector-curvature="0"
       style="fill:#a92760;fill-opacity:1" />
    <path
       class="cls-3"
       d="m 121.45,67.82 a 3.05,3.05 0 0 1 -1.78,-0.57 L 98.22,51.92 a 3.0718439,3.0718439 0 0 1 3.57,-5 l 21.46,15.32 a 3.07,3.07 0 0 1 -1.79,5.56"
       id="path51"
       inkscape:connector-curvature="0"
       style="fill:#a92760;fill-opacity:1" />
    <path
       class="cls-3"
       d="M 100,89.27 A 3.06,3.06 0 0 1 96.94,86.21 V 77 a 3.065,3.065 0 0 1 6.13,0 v 9.19 A 3.06,3.06 0 0 1 100,89.27"
       id="path53"
       inkscape:connector-curvature="0"
       style="fill:#a92760;fill-opacity:1" />
  </g>
</svg>
